<?xml version="1.0" standalone="no"?>
<!DOCTYPE svg PUBLIC "-//W3C//DTD SVG 20010904//EN"
 "http://www.w3.org/TR/2001/REC-SVG-20010904/DTD/svg10.dtd">
<svg version="1.0" xmlns="http://www.w3.org/2000/svg"
 width="350.000000pt" height="350.000000pt" viewBox="0 0 350.000000 350.000000"
 preserveAspectRatio="xMidYMid meet">

<g transform="translate(0.000000,350.000000) scale(0.100000,-0.100000)"
fill="#000000" stroke="none">
<path d="M1345 3475 c-152 -35 -246 -69 -400 -146 -182 -90 -302 -176 -451
-324 -224 -221 -366 -455 -461 -760 l-28 -90 0 -415 0 -415 39 -115 c196 -586
631 -1009 1209 -1176 l119 -34 368 0 368 0 119 34 c562 163 1003 580 1192
1129 71 206 81 279 81 583 0 250 -2 274 -26 382 -152 679 -678 1201 -1359
1352 -79 17 -126 20 -380 19 -267 0 -298 -2 -390 -24z m720 -64 c521 -105 955
-436 1190 -906 177 -356 227 -741 144 -1124 -141 -649 -668 -1168 -1319 -1301
-666 -136 -1358 143 -1739 700 -352 514 -397 1168 -121 1721 250 498 721 840
1272 924 140 21 432 14 573 -14z"/>
<path d="M326 2593 c15 -36 37 -91 179 -438 32 -77 89 -216 127 -310 38 -93
98 -240 133 -325 34 -85 83 -206 109 -267 25 -62 66 -164 91 -225 25 -62 50
-122 55 -133 5 -11 14 -32 20 -47 l10 -28 127 0 128 0 74 183 c89 220 192 471
256 627 57 137 154 377 256 627 l74 183 260 0 c279 -1 371 -11 463 -50 230
-99 229 -460 0 -576 -51 -26 -173 -54 -234 -54 l-34 0 0 -90 0 -90 196 -312
c108 -172 215 -343 238 -380 l41 -68 127 0 c126 0 128 0 127 23 0 12 -110 186
-243 387 -134 201 -242 366 -240 368 1 2 28 10 60 18 178 47 306 170 358 344
24 79 22 238 -3 318 -50 161 -175 271 -368 324 -73 20 -107 22 -495 26 -291 2
-418 0 -418 -7 0 -6 -46 -122 -101 -258 -407 -993 -395 -963 -470 -1183 -17
-52 -36 -106 -42 -120 -8 -22 -16 -5 -64 135 -29 88 -144 390 -255 670 -111
281 -224 567 -251 638 l-50 127 -129 0 -128 0 16 -37z"/>
</g>
</svg>
