<?xml version="1.0" standalone="no"?>
<!DOCTYPE svg PUBLIC "-//W3C//DTD SVG 20010904//EN"
 "http://www.w3.org/TR/2001/REC-SVG-20010904/DTD/svg10.dtd">
<svg version="1.0" xmlns="http://www.w3.org/2000/svg"
 width="462.000000pt" height="462.000000pt" viewBox="0 0 462.000000 462.000000"
 preserveAspectRatio="xMidYMid meet">

<g transform="translate(0.000000,462.000000) scale(0.100000,-0.100000)"
fill="#000000" stroke="none">
<path d="M2055 4608 c-793 -80 -1512 -603 -1847 -1343 -138 -305 -202 -610
-201 -955 0 -383 79 -708 252 -1047 291 -570 817 -1000 1428 -1168 234 -65
349 -79 623 -79 264 0 376 13 598 70 528 137 1014 488 1325 956 186 280 307
594 358 932 30 197 30 485 0 682 -72 481 -289 917 -625 1263 -390 399 -880
637 -1425 691 -122 12 -359 11 -486 -2z m495 -103 c397 -46 758 -189 1078
-429 478 -360 785 -892 858 -1490 20 -159 14 -470 -11 -616 -119 -697 -548
-1284 -1171 -1602 -318 -163 -634 -238 -997 -238 -592 0 -1134 225 -1553 644
-326 326 -525 712 -611 1186 -24 128 -27 170 -27 360 0 176 4 238 22 345 37
216 85 374 173 568 204 454 575 836 1022 1057 383 188 802 262 1217 215z"/>
<path d="M470 3462 c0 -5 32 -87 71 -183 39 -96 90 -221 114 -279 23 -58 64
-157 90 -220 26 -63 55 -135 65 -160 10 -25 39 -97 65 -160 26 -63 55 -135 65
-160 38 -94 92 -226 105 -255 7 -16 57 -138 110 -270 82 -202 129 -315 207
-505 5 -14 20 -50 32 -80 l21 -55 165 -3 166 -2 26 67 c15 38 50 124 79 193
28 69 59 145 69 170 10 25 33 83 53 130 19 47 56 137 82 200 26 63 55 134 66
157 10 23 19 46 19 50 0 4 6 20 14 35 8 14 19 43 26 65 7 21 18 47 25 58 6 11
18 38 25 60 7 22 16 45 20 50 4 6 11 21 15 35 4 14 18 49 31 78 13 29 24 56
24 60 1 4 9 25 20 47 11 22 19 44 20 48 0 4 8 27 19 50 10 23 35 83 55 132 19
50 64 160 100 245 l64 155 323 3 c203 2 359 -1 419 -9 226 -27 352 -119 400
-290 25 -91 25 -155 1 -247 -32 -124 -103 -210 -219 -265 -65 -32 -129 -46
-243 -54 l-89 -6 0 -120 c0 -110 2 -124 23 -156 13 -20 55 -85 92 -146 38 -60
110 -175 160 -255 50 -80 105 -167 121 -193 16 -27 40 -66 54 -87 14 -22 56
-89 93 -150 l69 -110 164 0 164 0 0 25 c0 14 -9 38 -19 53 -10 15 -72 108
-137 207 -64 99 -195 298 -291 442 -95 144 -173 266 -173 272 0 10 61 31 92
31 9 0 20 5 23 10 3 6 14 10 23 10 28 1 138 62 195 110 66 55 137 147 171 221
73 161 74 415 2 572 -31 68 -109 170 -155 205 -20 15 -38 29 -41 32 -11 13
-98 58 -150 78 -30 12 -95 32 -145 44 -86 21 -115 22 -607 26 l-517 4 -25 -56
c-14 -31 -26 -59 -26 -62 0 -3 -7 -22 -16 -42 -29 -64 -50 -115 -77 -182 -40
-100 -127 -313 -137 -335 -5 -11 -27 -65 -49 -120 -22 -55 -72 -179 -112 -275
-122 -297 -161 -393 -176 -435 -8 -22 -21 -53 -28 -70 -13 -28 -36 -93 -125
-359 -20 -61 -41 -111 -46 -113 -5 -2 -26 47 -46 109 -68 206 -105 312 -147
413 -23 55 -41 103 -41 107 0 4 -11 32 -25 62 -14 30 -25 58 -25 61 0 4 -6 21
-14 38 -8 18 -31 75 -51 127 -20 52 -40 104 -44 115 -11 27 -41 100 -161 410
-56 143 -108 274 -115 290 -7 17 -37 93 -67 170 l-54 140 -162 3 c-89 1 -162
-1 -162 -6z"/>
</g>
</svg>
